# Blender 4.2.0
# www.blender.org
v 0.057567 0.020821 -0.025630
v 0.025630 0.020821 -0.057567
v -0.025630 0.020821 -0.057567
v -0.057567 0.020821 -0.025630
v -0.057567 0.020821 0.025630
v -0.025630 0.020821 0.057567
v 0.025630 0.020821 0.057567
v 0.057567 0.020821 0.025630
v 0.050980 0.020821 -0.037039
v 0.037039 0.020821 -0.050980
v -0.037039 0.020821 -0.050980
v -0.050980 0.020821 -0.037039
v -0.050980 0.020821 0.037039
v -0.037039 0.020821 0.050980
v 0.037039 0.020821 0.050980
v 0.050980 0.020821 0.037039
v 0.054572 0.020821 -0.031507
v 0.031507 0.020821 -0.054572
v -0.031507 0.020821 -0.054572
v -0.054572 0.020821 -0.031507
v -0.054572 0.020821 0.031507
v -0.031507 0.020821 0.054572
v 0.031507 0.020821 0.054572
v 0.054572 0.020821 0.031507
v 0.063015 0.020821 -0.000000
v -0.000000 0.020821 -0.063015
v -0.063015 0.020821 -0.000000
v 0.000000 0.020821 0.063015
v 0.046829 0.020821 -0.042165
v 0.042165 0.020821 -0.046829
v -0.042165 0.020821 -0.046829
v -0.046829 0.020821 -0.042165
v -0.046829 0.020821 0.042165
v -0.042165 0.020821 0.046829
v 0.042165 0.020821 0.046829
v 0.046829 0.020821 0.042165
v 0.059931 0.020821 -0.019473
v 0.019473 0.020821 -0.059931
v -0.019473 0.020821 -0.059931
v -0.059931 0.020821 -0.019473
v -0.059931 0.020821 0.019473
v -0.019473 0.020821 0.059931
v 0.019473 0.020821 0.059931
v 0.059931 0.020821 0.019473
v 0.061638 0.020821 -0.013102
v 0.013102 0.020821 -0.061638
v -0.013102 0.020821 -0.061638
v -0.061638 0.020821 -0.013102
v -0.061638 0.020821 0.013102
v -0.013102 0.020821 0.061638
v 0.013102 0.020821 0.061638
v 0.061638 0.020821 0.013102
v 0.062670 0.020821 -0.006587
v 0.006587 0.020821 -0.062670
v -0.006587 0.020821 -0.062670
v -0.062670 0.020821 -0.006587
v -0.062670 0.020821 0.006587
v -0.006587 0.020821 0.062670
v 0.006587 0.020821 0.062670
v 0.062670 0.020821 0.006587
v 0.057567 -0.007644 -0.025630
v 0.025630 -0.007644 -0.057567
v -0.025630 -0.007644 -0.057567
v -0.057567 -0.007644 -0.025630
v -0.057567 -0.007644 0.025630
v -0.025630 -0.007644 0.057567
v 0.025630 -0.007644 0.057567
v 0.057567 -0.007644 0.025630
v 0.050980 -0.007644 -0.037039
v 0.037039 -0.007644 -0.050980
v -0.037039 -0.007644 -0.050980
v -0.050980 -0.007644 -0.037039
v -0.050980 -0.007644 0.037039
v -0.037039 -0.007644 0.050980
v 0.037039 -0.007644 0.050980
v 0.050980 -0.007644 0.037039
v 0.054572 -0.007644 -0.031507
v 0.031507 -0.007644 -0.054572
v -0.031507 -0.007644 -0.054572
v -0.054572 -0.007644 -0.031507
v -0.054572 -0.007644 0.031507
v -0.031507 -0.007644 0.054572
v 0.031507 -0.007644 0.054572
v 0.054572 -0.007644 0.031507
v 0.063015 -0.007644 0.000000
v -0.000000 -0.007644 -0.063015
v -0.063015 -0.007644 0.000000
v 0.000000 -0.007644 0.063015
v 0.046829 -0.007644 -0.042165
v 0.042165 -0.007644 -0.046829
v -0.042165 -0.007644 -0.046829
v -0.046829 -0.007644 -0.042165
v -0.046829 -0.007644 0.042165
v -0.042165 -0.007644 0.046829
v 0.042165 -0.007644 0.046829
v 0.046829 -0.007644 0.042165
v 0.059931 -0.007644 -0.019473
v 0.019473 -0.007644 -0.059931
v -0.019473 -0.007644 -0.059931
v -0.059931 -0.007644 -0.019473
v -0.059931 -0.007644 0.019473
v -0.019473 -0.007644 0.059931
v 0.019473 -0.007644 0.059931
v 0.059931 -0.007644 0.019473
v 0.061638 -0.007644 -0.013102
v 0.013102 -0.007644 -0.061638
v -0.013102 -0.007644 -0.061638
v -0.061638 -0.007644 -0.013102
v -0.061638 -0.007644 0.013102
v -0.013102 -0.007644 0.061638
v 0.013102 -0.007644 0.061638
v 0.061638 -0.007644 0.013102
v 0.062670 -0.007644 -0.006587
v 0.006587 -0.007644 -0.062670
v -0.006587 -0.007644 -0.062670
v -0.062670 -0.007644 -0.006587
v -0.062670 -0.007644 0.006587
v -0.006587 -0.007644 0.062670
v 0.006587 -0.007644 0.062670
v 0.062670 -0.007644 0.006587
vn 0.9986 -0.0000 -0.0523
vn 0.9877 -0.0000 -0.1564
vn 0.9659 -0.0000 -0.2588
vn 0.9336 -0.0000 -0.3584
vn 0.8910 -0.0000 -0.4540
vn 0.8387 -0.0000 -0.5446
vn 0.7772 -0.0000 -0.6293
vn 0.7071 -0.0000 -0.7071
vn 0.6293 -0.0000 -0.7772
vn 0.5446 -0.0000 -0.8387
vn 0.4540 -0.0000 -0.8910
vn 0.3584 -0.0000 -0.9336
vn 0.2588 -0.0000 -0.9659
vn 0.1564 -0.0000 -0.9877
vn 0.0523 -0.0000 -0.9986
vn -0.0523 -0.0000 -0.9986
vn -0.1564 -0.0000 -0.9877
vn -0.2588 -0.0000 -0.9659
vn -0.3584 -0.0000 -0.9336
vn -0.4540 -0.0000 -0.8910
vn -0.5446 -0.0000 -0.8387
vn -0.6293 -0.0000 -0.7772
vn -0.7071 -0.0000 -0.7071
vn -0.7772 -0.0000 -0.6293
vn -0.8387 -0.0000 -0.5446
vn -0.8910 -0.0000 -0.4540
vn -0.9336 -0.0000 -0.3584
vn -0.9659 -0.0000 -0.2588
vn -0.9877 -0.0000 -0.1564
vn -0.9986 -0.0000 -0.0523
vn -0.9986 -0.0000 0.0523
vn -0.9877 -0.0000 0.1564
vn -0.9659 -0.0000 0.2588
vn -0.9336 -0.0000 0.3584
vn -0.8910 -0.0000 0.4540
vn -0.8387 -0.0000 0.5446
vn -0.7772 -0.0000 0.6293
vn -0.7071 -0.0000 0.7071
vn -0.6293 -0.0000 0.7772
vn -0.5446 -0.0000 0.8387
vn -0.4540 -0.0000 0.8910
vn -0.3584 -0.0000 0.9336
vn -0.2588 -0.0000 0.9659
vn -0.1564 -0.0000 0.9877
vn -0.0523 -0.0000 0.9986
vn 0.0523 -0.0000 0.9986
vn 0.1564 -0.0000 0.9877
vn 0.2588 -0.0000 0.9659
vn 0.3584 -0.0000 0.9336
vn 0.4540 -0.0000 0.8910
vn 0.5446 -0.0000 0.8387
vn 0.6293 -0.0000 0.7772
vn 0.7071 -0.0000 0.7071
vn 0.7772 -0.0000 0.6293
vn 0.8387 -0.0000 0.5446
vn 0.8910 -0.0000 0.4540
vn 0.9336 -0.0000 0.3584
vn 0.9659 -0.0000 0.2588
vn 0.9877 -0.0000 0.1564
vn 0.9986 -0.0000 0.0523
vn -0.0000 1.0000 -0.0000
vn -0.0000 -1.0000 -0.0000
s 0
g innerCylinder
f 25//1 85//1 53//1
f 113//1 53//1 85//1
f 53//2 113//2 45//2
f 45//2 113//2 105//2
f 45//3 105//3 37//3
f 97//3 37//3 105//3
f 37//4 97//4 1//4
f 61//4 1//4 97//4
f 1//5 61//5 17//5
f 17//5 61//5 77//5
f 17//6 77//6 9//6
f 9//6 77//6 69//6
f 9//7 69//7 29//7
f 89//7 29//7 69//7
f 29//8 89//8 30//8
f 90//8 30//8 89//8
f 30//9 90//9 10//9
f 70//9 10//9 90//9
f 10//10 70//10 18//10
f 18//10 70//10 78//10
f 18//11 78//11 2//11
f 2//11 78//11 62//11
f 2//12 62//12 38//12
f 98//12 38//12 62//12
f 38//13 98//13 46//13
f 106//13 46//13 98//13
f 46//14 106//14 54//14
f 54//14 106//14 114//14
f 54//15 114//15 26//15
f 86//15 26//15 114//15
f 26//16 86//16 55//16
f 115//16 55//16 86//16
f 55//17 115//17 47//17
f 47//17 115//17 107//17
f 47//18 107//18 39//18
f 99//18 39//18 107//18
f 39//19 99//19 3//19
f 63//19 3//19 99//19
f 3//20 63//20 19//20
f 19//20 63//20 79//20
f 19//21 79//21 11//21
f 11//21 79//21 71//21
f 11//22 71//22 31//22
f 91//22 31//22 71//22
f 31//23 91//23 32//23
f 92//23 32//23 91//23
f 32//24 92//24 12//24
f 72//24 12//24 92//24
f 12//25 72//25 20//25
f 20//25 72//25 80//25
f 20//26 80//26 4//26
f 4//26 80//26 64//26
f 4//27 64//27 40//27
f 100//27 40//27 64//27
f 40//28 100//28 48//28
f 108//28 48//28 100//28
f 48//29 108//29 56//29
f 56//29 108//29 116//29
f 56//30 116//30 27//30
f 87//30 27//30 116//30
f 27//31 87//31 57//31
f 117//31 57//31 87//31
f 57//32 117//32 49//32
f 49//32 117//32 109//32
f 49//33 109//33 41//33
f 101//33 41//33 109//33
f 41//34 101//34 5//34
f 65//34 5//34 101//34
f 5//35 65//35 21//35
f 21//35 65//35 81//35
f 21//36 81//36 13//36
f 13//36 81//36 73//36
f 13//37 73//37 33//37
f 93//37 33//37 73//37
f 33//38 93//38 34//38
f 94//38 34//38 93//38
f 34//39 94//39 14//39
f 74//39 14//39 94//39
f 14//40 74//40 22//40
f 22//40 74//40 82//40
f 22//41 82//41 6//41
f 6//41 82//41 66//41
f 6//42 66//42 42//42
f 102//42 42//42 66//42
f 42//43 102//43 50//43
f 110//43 50//43 102//43
f 50//44 110//44 58//44
f 58//44 110//44 118//44
f 58//45 118//45 28//45
f 88//45 28//45 118//45
f 28//46 88//46 59//46
f 119//46 59//46 88//46
f 59//47 119//47 51//47
f 51//47 119//47 111//47
f 51//48 111//48 43//48
f 103//48 43//48 111//48
f 43//49 103//49 7//49
f 67//49 7//49 103//49
f 7//50 67//50 23//50
f 23//50 67//50 83//50
f 23//51 83//51 15//51
f 15//51 83//51 75//51
f 15//52 75//52 35//52
f 95//52 35//52 75//52
f 35//53 95//53 36//53
f 96//53 36//53 95//53
f 36//54 96//54 16//54
f 76//54 16//54 96//54
f 16//55 76//55 24//55
f 24//55 76//55 84//55
f 24//56 84//56 8//56
f 8//56 84//56 68//56
f 8//57 68//57 44//57
f 104//57 44//57 68//57
f 44//58 104//58 52//58
f 112//58 52//58 104//58
f 52//59 112//59 60//59
f 60//59 112//59 120//59
f 60//60 120//60 25//60
f 85//60 25//60 120//60
f 45//61 37//61 53//61
f 37//61 1//61 53//61
f 53//61 1//61 25//61
f 25//61 1//61 60//61
f 1//61 17//61 60//61
f 60//61 17//61 52//61
f 52//61 17//61 44//61
f 44//61 17//61 8//61
f 8//61 17//61 24//61
f 24//61 17//61 16//61
f 16//61 17//61 36//61
f 36//61 17//61 35//61
f 35//61 17//61 15//61
f 15//61 17//61 23//61
f 23//61 17//61 7//61
f 7//61 17//61 43//61
f 43//61 17//61 51//61
f 51//61 17//61 59//61
f 59//61 17//61 28//61
f 28//61 17//61 58//61
f 58//61 17//61 50//61
f 50//61 17//61 42//61
f 42//61 17//61 6//61
f 6//61 17//61 22//61
f 22//61 17//61 14//61
f 14//61 17//61 34//61
f 17//61 9//61 34//61
f 9//61 29//61 34//61
f 34//61 29//61 33//61
f 33//61 29//61 13//61
f 13//61 29//61 21//61
f 21//61 29//61 5//61
f 5//61 29//61 41//61
f 41//61 29//61 49//61
f 49//61 29//61 57//61
f 57//61 29//61 27//61
f 27//61 29//61 56//61
f 56//61 29//61 48//61
f 48//61 29//61 40//61
f 40//61 29//61 4//61
f 4//61 29//61 20//61
f 20//61 29//61 12//61
f 12//61 29//61 32//61
f 32//61 29//61 31//61
f 31//61 29//61 11//61
f 29//61 30//61 11//61
f 30//61 10//61 11//61
f 11//61 10//61 19//61
f 19//61 10//61 3//61
f 3//61 10//61 39//61
f 39//61 10//61 47//61
f 47//61 10//61 55//61
f 55//61 10//61 26//61
f 26//61 10//61 54//61
f 54//61 10//61 46//61
f 46//61 10//61 38//61
f 38//61 10//61 2//61
f 18//61 2//61 10//61
f 112//62 104//62 120//62
f 104//62 68//62 120//62
f 120//62 68//62 85//62
f 85//62 68//62 113//62
f 68//62 84//62 113//62
f 113//62 84//62 105//62
f 105//62 84//62 97//62
f 97//62 84//62 61//62
f 61//62 84//62 77//62
f 77//62 84//62 69//62
f 69//62 84//62 89//62
f 89//62 84//62 90//62
f 90//62 84//62 70//62
f 70//62 84//62 78//62
f 78//62 84//62 62//62
f 62//62 84//62 98//62
f 98//62 84//62 106//62
f 106//62 84//62 114//62
f 114//62 84//62 86//62
f 86//62 84//62 115//62
f 115//62 84//62 107//62
f 107//62 84//62 99//62
f 99//62 84//62 63//62
f 63//62 84//62 79//62
f 79//62 84//62 71//62
f 71//62 84//62 91//62
f 84//62 76//62 91//62
f 76//62 96//62 91//62
f 91//62 96//62 92//62
f 92//62 96//62 72//62
f 72//62 96//62 80//62
f 80//62 96//62 64//62
f 64//62 96//62 100//62
f 100//62 96//62 108//62
f 108//62 96//62 116//62
f 116//62 96//62 87//62
f 87//62 96//62 117//62
f 117//62 96//62 109//62
f 109//62 96//62 101//62
f 101//62 96//62 65//62
f 65//62 96//62 81//62
f 81//62 96//62 73//62
f 73//62 96//62 93//62
f 93//62 96//62 94//62
f 94//62 96//62 74//62
f 96//62 95//62 74//62
f 95//62 75//62 74//62
f 74//62 75//62 82//62
f 82//62 75//62 66//62
f 66//62 75//62 102//62
f 102//62 75//62 110//62
f 110//62 75//62 118//62
f 118//62 75//62 88//62
f 88//62 75//62 119//62
f 119//62 75//62 111//62
f 111//62 75//62 103//62
f 103//62 75//62 67//62
f 83//62 67//62 75//62
