# Blender 4.2.0
# www.blender.org
v 0.085732 0.097842 -0.135092
v -0.085732 0.097842 -0.135092
v -0.085732 0.097842 0.135092
v 0.085732 0.097842 0.135092
v 0.158738 0.097842 -0.020053
v -0.158738 0.097842 -0.020053
v -0.158738 0.097842 0.020053
v 0.158738 0.097842 0.020053
v 0.068125 0.097842 -0.144772
v -0.068125 0.097842 -0.144772
v -0.068125 0.097842 0.144772
v 0.068125 0.097842 0.144772
v 0.154973 0.097842 -0.039790
v -0.154973 0.097842 -0.039790
v -0.154973 0.097842 0.039790
v 0.154973 0.097842 0.039790
v 0.010046 0.097842 -0.159684
v -0.010046 0.097842 -0.159684
v -0.010046 0.097842 0.159684
v 0.010046 0.097842 0.159684
v 0.148764 0.097842 -0.058900
v -0.148764 0.097842 -0.058900
v -0.148764 0.097842 0.058900
v 0.148764 0.097842 0.058900
v 0.140209 0.097842 -0.077081
v -0.140209 0.097842 -0.077081
v -0.140209 0.097842 0.077081
v 0.140209 0.097842 0.077081
v 0.049443 0.097842 -0.152169
v -0.049443 0.097842 -0.152169
v -0.049443 0.097842 0.152169
v 0.049443 0.097842 0.152169
v 0.160000 0.097842 -0.000000
v -0.160000 0.097842 -0.000000
v 0.101988 0.097842 -0.123282
v -0.101988 0.097842 -0.123282
v -0.101988 0.097842 0.123282
v 0.101988 0.097842 0.123282
v 0.029981 0.097842 -0.157166
v -0.029981 0.097842 -0.157166
v -0.029981 0.097842 0.157166
v 0.029981 0.097842 0.157166
v 0.129443 0.097842 -0.094046
v -0.129443 0.097842 -0.094046
v -0.129443 0.097842 0.094046
v 0.129443 0.097842 0.094046
v 0.116635 0.097842 -0.109528
v -0.116635 0.097842 -0.109528
v -0.116635 0.097842 0.109528
v 0.116635 0.097842 0.109528
v 0.085732 -0.268926 -0.135092
v -0.085732 -0.268926 -0.135092
v -0.085732 -0.268926 0.135092
v 0.085732 -0.268926 0.135092
v 0.158738 -0.268926 -0.020053
v -0.158738 -0.268926 -0.020053
v -0.158738 -0.268926 0.020053
v 0.158738 -0.268926 0.020053
v 0.068125 -0.268926 -0.144772
v -0.068125 -0.268926 -0.144772
v -0.068125 -0.268926 0.144772
v 0.068125 -0.268926 0.144772
v 0.154973 -0.268926 -0.039790
v -0.154973 -0.268926 -0.039790
v -0.154973 -0.268926 0.039790
v 0.154973 -0.268926 0.039790
v 0.010046 -0.268926 -0.159684
v -0.010046 -0.268926 -0.159684
v -0.010046 -0.268926 0.159684
v 0.010046 -0.268926 0.159684
v 0.148764 -0.268926 -0.058900
v -0.148764 -0.268926 -0.058900
v -0.148764 -0.268926 0.058900
v 0.148764 -0.268926 0.058900
v 0.140209 -0.268926 -0.077081
v -0.140209 -0.268926 -0.077081
v -0.140209 -0.268926 0.077081
v 0.140209 -0.268926 0.077081
v 0.049443 -0.268926 -0.152169
v -0.049443 -0.268926 -0.152169
v -0.049443 -0.268926 0.152169
v 0.049443 -0.268926 0.152169
v 0.160000 -0.268926 0.000000
v -0.160000 -0.268926 0.000000
v 0.101988 -0.268926 -0.123282
v -0.101988 -0.268926 -0.123282
v -0.101988 -0.268926 0.123282
v 0.101988 -0.268926 0.123282
v 0.029981 -0.268926 -0.157166
v -0.029981 -0.268926 -0.157166
v -0.029981 -0.268926 0.157166
v 0.029981 -0.268926 0.157166
v 0.129443 -0.268926 -0.094046
v -0.129443 -0.268926 -0.094046
v -0.129443 -0.268926 0.094046
v 0.129443 -0.268926 0.094046
v 0.116635 -0.268926 -0.109528
v -0.116635 -0.268926 -0.109528
v -0.116635 -0.268926 0.109528
v 0.116635 -0.268926 0.109528
vn 0.9980 -0.0000 -0.0628
vn 0.9823 -0.0000 -0.1874
vn 0.9511 -0.0000 -0.3090
vn 0.9048 -0.0000 -0.4258
vn 0.8443 -0.0000 -0.5358
vn 0.7705 -0.0000 -0.6374
vn 0.6845 -0.0000 -0.7290
vn 0.5878 -0.0000 -0.8090
vn 0.4818 -0.0000 -0.8763
vn 0.3681 -0.0000 -0.9298
vn 0.2487 -0.0000 -0.9686
vn 0.1253 -0.0000 -0.9921
vn -0.0000 -0.0000 -1.0000
vn -0.1253 -0.0000 -0.9921
vn -0.2487 -0.0000 -0.9686
vn -0.3681 -0.0000 -0.9298
vn -0.4818 -0.0000 -0.8763
vn -0.5878 -0.0000 -0.8090
vn -0.6845 -0.0000 -0.7290
vn -0.7705 -0.0000 -0.6374
vn -0.8443 -0.0000 -0.5358
vn -0.9048 -0.0000 -0.4258
vn -0.9511 -0.0000 -0.3090
vn -0.9823 -0.0000 -0.1874
vn -0.9980 -0.0000 -0.0628
vn -0.9980 -0.0000 0.0628
vn -0.9823 -0.0000 0.1874
vn -0.9511 -0.0000 0.3090
vn -0.9048 -0.0000 0.4258
vn -0.8443 -0.0000 0.5358
vn -0.7705 -0.0000 0.6374
vn -0.6845 -0.0000 0.7290
vn -0.5878 -0.0000 0.8090
vn -0.4818 -0.0000 0.8763
vn -0.3681 -0.0000 0.9298
vn -0.2487 -0.0000 0.9686
vn -0.1253 -0.0000 0.9921
vn -0.0000 -0.0000 1.0000
vn 0.1253 -0.0000 0.9921
vn 0.2487 -0.0000 0.9686
vn 0.3681 -0.0000 0.9298
vn 0.4818 -0.0000 0.8763
vn 0.5878 -0.0000 0.8090
vn 0.6845 -0.0000 0.7290
vn 0.7705 -0.0000 0.6374
vn 0.8443 -0.0000 0.5358
vn 0.9048 -0.0000 0.4258
vn 0.9511 -0.0000 0.3090
vn 0.9823 -0.0000 0.1874
vn 0.9980 -0.0000 0.0628
vn -0.0000 1.0000 -0.0000
vn -0.0000 -1.0000 -0.0000
s 0
g middleCylinder
f 33//1 83//1 5//1
f 55//1 5//1 83//1
f 5//2 55//2 13//2
f 63//2 13//2 55//2
f 13//3 63//3 21//3
f 71//3 21//3 63//3
f 21//4 71//4 25//4
f 75//4 25//4 71//4
f 25//5 75//5 43//5
f 93//5 43//5 75//5
f 43//6 93//6 47//6
f 97//6 47//6 93//6
f 47//7 97//7 35//7
f 85//7 35//7 97//7
f 35//8 85//8 1//8
f 51//8 1//8 85//8
f 1//9 51//9 9//9
f 59//9 9//9 51//9
f 9//10 59//10 29//10
f 79//10 29//10 59//10
f 29//11 79//11 39//11
f 89//11 39//11 79//11
f 39//12 89//12 17//12
f 67//12 17//12 89//12
f 17//13 67//13 18//13
f 68//13 18//13 67//13
f 18//14 68//14 40//14
f 90//14 40//14 68//14
f 40//15 90//15 30//15
f 80//15 30//15 90//15
f 30//16 80//16 10//16
f 60//16 10//16 80//16
f 10//17 60//17 2//17
f 52//17 2//17 60//17
f 2//18 52//18 36//18
f 86//18 36//18 52//18
f 36//19 86//19 48//19
f 98//19 48//19 86//19
f 48//20 98//20 44//20
f 94//20 44//20 98//20
f 44//21 94//21 26//21
f 76//21 26//21 94//21
f 26//22 76//22 22//22
f 72//22 22//22 76//22
f 22//23 72//23 14//23
f 64//23 14//23 72//23
f 14//24 64//24 6//24
f 56//24 6//24 64//24
f 6//25 56//25 34//25
f 84//25 34//25 56//25
f 34//26 84//26 7//26
f 57//26 7//26 84//26
f 7//27 57//27 15//27
f 65//27 15//27 57//27
f 15//28 65//28 23//28
f 73//28 23//28 65//28
f 23//29 73//29 27//29
f 77//29 27//29 73//29
f 27//30 77//30 45//30
f 95//30 45//30 77//30
f 45//31 95//31 49//31
f 99//31 49//31 95//31
f 49//32 99//32 37//32
f 87//32 37//32 99//32
f 37//33 87//33 3//33
f 53//33 3//33 87//33
f 3//34 53//34 11//34
f 61//34 11//34 53//34
f 11//35 61//35 31//35
f 81//35 31//35 61//35
f 31//36 81//36 41//36
f 91//36 41//36 81//36
f 41//37 91//37 19//37
f 69//37 19//37 91//37
f 19//38 69//38 20//38
f 70//38 20//38 69//38
f 20//39 70//39 42//39
f 92//39 42//39 70//39
f 42//40 92//40 32//40
f 82//40 32//40 92//40
f 32//41 82//41 12//41
f 62//41 12//41 82//41
f 12//42 62//42 4//42
f 54//42 4//42 62//42
f 4//43 54//43 38//43
f 88//43 38//43 54//43
f 38//44 88//44 50//44
f 100//44 50//44 88//44
f 50//45 100//45 46//45
f 96//45 46//45 100//45
f 46//46 96//46 28//46
f 78//46 28//46 96//46
f 28//47 78//47 24//47
f 74//47 24//47 78//47
f 24//48 74//48 16//48
f 66//48 16//48 74//48
f 16//49 66//49 8//49
f 58//49 8//49 66//49
f 8//50 58//50 33//50
f 83//50 33//50 58//50
f 13//51 21//51 5//51
f 21//51 25//51 5//51
f 5//51 25//51 33//51
f 33//51 25//51 8//51
f 25//51 43//51 8//51
f 43//51 47//51 8//51
f 47//51 35//51 8//51
f 35//51 1//51 8//51
f 1//51 9//51 8//51
f 9//51 29//51 8//51
f 29//51 39//51 8//51
f 39//51 17//51 8//51
f 17//51 18//51 8//51
f 18//51 40//51 8//51
f 40//51 30//51 8//51
f 30//51 10//51 8//51
f 10//51 2//51 8//51
f 2//51 36//51 8//51
f 36//51 48//51 8//51
f 48//51 44//51 8//51
f 44//51 26//51 8//51
f 26//51 22//51 8//51
f 22//51 14//51 8//51
f 14//51 6//51 8//51
f 6//51 34//51 8//51
f 34//51 7//51 8//51
f 8//51 7//51 16//51
f 16//51 7//51 24//51
f 7//51 15//51 24//51
f 15//51 23//51 24//51
f 24//51 23//51 28//51
f 28//51 23//51 46//51
f 46//51 23//51 50//51
f 50//51 23//51 38//51
f 38//51 23//51 4//51
f 23//51 27//51 4//51
f 27//51 45//51 4//51
f 45//51 49//51 4//51
f 49//51 37//51 4//51
f 37//51 3//51 4//51
f 4//51 3//51 12//51
f 12//51 3//51 32//51
f 32//51 3//51 42//51
f 42//51 3//51 20//51
f 20//51 3//51 19//51
f 19//51 3//51 41//51
f 41//51 3//51 31//51
f 11//51 31//51 3//51
f 66//52 74//52 58//52
f 74//52 78//52 58//52
f 58//52 78//52 83//52
f 83//52 78//52 55//52
f 78//52 96//52 55//52
f 96//52 100//52 55//52
f 100//52 88//52 55//52
f 88//52 54//52 55//52
f 54//52 62//52 55//52
f 62//52 82//52 55//52
f 82//52 92//52 55//52
f 92//52 70//52 55//52
f 70//52 69//52 55//52
f 69//52 91//52 55//52
f 91//52 81//52 55//52
f 81//52 61//52 55//52
f 61//52 53//52 55//52
f 53//52 87//52 55//52
f 87//52 99//52 55//52
f 99//52 95//52 55//52
f 95//52 77//52 55//52
f 77//52 73//52 55//52
f 73//52 65//52 55//52
f 65//52 57//52 55//52
f 57//52 84//52 55//52
f 84//52 56//52 55//52
f 55//52 56//52 63//52
f 63//52 56//52 71//52
f 56//52 64//52 71//52
f 64//52 72//52 71//52
f 71//52 72//52 75//52
f 75//52 72//52 93//52
f 93//52 72//52 97//52
f 97//52 72//52 85//52
f 85//52 72//52 51//52
f 72//52 76//52 51//52
f 76//52 94//52 51//52
f 94//52 98//52 51//52
f 98//52 86//52 51//52
f 86//52 52//52 51//52
f 51//52 52//52 59//52
f 59//52 52//52 79//52
f 79//52 52//52 89//52
f 89//52 52//52 67//52
f 67//52 52//52 68//52
f 68//52 52//52 90//52
f 90//52 52//52 80//52
f 60//52 80//52 52//52
